<mxfile host="app.diagrams.net" agent="Mozilla/5.0 (Windows NT 10.0; Win64; x64) AppleWebKit/537.36 (KHTML, like Gecko) Chrome/142.0.0.0 Safari/537.36" version="28.2.7">
  <diagram name="Page-1" id="O9IOmPU2iuHsHxxyN-KQ">
    <mxGraphModel dx="3028" dy="1150" grid="1" gridSize="10" guides="1" tooltips="1" connect="1" arrows="1" fold="1" page="1" pageScale="1" pageWidth="1100" pageHeight="850" math="0" shadow="0">
      <root>
        <mxCell id="0" />
        <mxCell id="1" parent="0" />
        <mxCell id="ovO3uFUhICe9sMaNS4VE-9" value="" style="rounded=0;whiteSpace=wrap;html=1;fillColor=none;dashed=1;dashPattern=8 8;" vertex="1" parent="1">
          <mxGeometry x="-860" y="250" width="370" height="270" as="geometry" />
        </mxCell>
        <mxCell id="ovO3uFUhICe9sMaNS4VE-31" style="edgeStyle=orthogonalEdgeStyle;rounded=0;orthogonalLoop=1;jettySize=auto;html=1;entryX=0;entryY=0.25;entryDx=0;entryDy=0;exitX=1;exitY=0.25;exitDx=0;exitDy=0;fillColor=#f8cecc;strokeColor=#b85450;" edge="1" parent="1" source="ovO3uFUhICe9sMaNS4VE-13" target="ovO3uFUhICe9sMaNS4VE-18">
          <mxGeometry relative="1" as="geometry" />
        </mxCell>
        <mxCell id="ovO3uFUhICe9sMaNS4VE-13" value="" style="rounded=0;whiteSpace=wrap;html=1;fillColor=none;" vertex="1" parent="1">
          <mxGeometry x="-820" y="290" width="120" height="210" as="geometry" />
        </mxCell>
        <mxCell id="ovO3uFUhICe9sMaNS4VE-2" value="User&lt;div&gt;&lt;br&gt;&lt;/div&gt;" style="shape=umlActor;verticalLabelPosition=bottom;verticalAlign=top;html=1;outlineConnect=0;" vertex="1" parent="1">
          <mxGeometry x="-970" y="360" width="30" height="60" as="geometry" />
        </mxCell>
        <mxCell id="ovO3uFUhICe9sMaNS4VE-12" value="" style="editableCssRules=.*;html=1;shape=image;verticalLabelPosition=bottom;labelBackgroundColor=#ffffff;verticalAlign=top;aspect=fixed;imageAspect=0;image=data:image/svg+xml,PHN2ZyB4bWxucz0iaHR0cDovL3d3dy53My5vcmcvMjAwMC9zdmciIHhtbG5zOnY9Imh0dHBzOi8vdmVjdGEuaW8vbmFubyIgd2lkdGg9IjIwLjAwMTA0NTIyNzA1MDc4IiBoZWlnaHQ9IjIwLjAwMTA0NTIyNzA1MDc4IiBmaWxsLXJ1bGU9ImV2ZW5vZGQiIHZpZXdCb3g9IjAgMCAyMC4wMDEwNDUyMjcwNTA3OCAyMC4wMDEwNDUyMjcwNTA3OCI+JiN4YTsJPHN0eWxlIHR5cGU9InRleHQvY3NzIj4mI3hhOwkuc3Qwe2ZpbGw6I2FlY2JmYTt9JiN4YTsJLnN0MXtmaWxsOiM2NjlkZjY7fSYjeGE7CS5zdDJ7ZmlsbDojNDI4NWY0O30mI3hhOwk8L3N0eWxlPiYjeGE7CTxwYXRoIGNsYXNzPSJzdDAiIGQ9Ik00LjczIDguODN2Mi42M2E0LjkxIDQuOTEgMCAwIDAgMS43MSAxLjc0VjguODN6Ii8+JiN4YTsJPHBhdGggY2xhc3M9InN0MSIgZD0iTTcuODkgNi40MXY3LjUzQTcuNjIgNy42MiAwIDAgMCA5IDE0YTggOCAwIDAgMCAxIDBWNi40MXoiLz4mI3hhOwk8cGF0aCBjbGFzcz0ic3QwIiBkPSJNMTEuNjQgOS44NnYzLjI5YTUgNSAwIDAgMCAxLjctMS44MlY5Ljg2eiIvPiYjeGE7CTxwYXRoIGNsYXNzPSJzdDIiIGQ9Ik0xNS43NCAxNC4zMmwtMS40MiAxLjQyYS40Mi40MiAwIDAgMCAwIC42bDMuNTQgMy41NGEuNDIuNDIgMCAwIDAgLjU5IDBsMS40My0xLjQzYS40Mi40MiAwIDAgMCAwLS41OWwtMy41NC0zLjU0YS40Mi40MiAwIDAgMC0uNiAwIi8+JiN4YTsJPHBhdGggY2xhc3M9InN0MSIgZD0iTTkgMGE5IDkgMCAxIDAgMCAxOEE5IDkgMCAxIDAgOSAwbTAgMTUuNjlhNi42OCA2LjY4IDAgMCAxIC4wMDctMTMuMzYgNi42OCA2LjY4IDAgMCAxIDQuNzI3IDExLjQwM0E2LjY4IDYuNjggMCAwIDEgOSAxNS42OSIvPiYjeGE7PC9zdmc+;" vertex="1" parent="1">
          <mxGeometry x="-790" y="350" width="60" height="60" as="geometry" />
        </mxCell>
        <mxCell id="ovO3uFUhICe9sMaNS4VE-14" value="&lt;b&gt;&lt;font style=&quot;font-size: 14px;&quot;&gt;UI Inputs&lt;/font&gt;&lt;/b&gt;" style="text;html=1;whiteSpace=wrap;strokeColor=none;fillColor=none;align=center;verticalAlign=middle;rounded=0;" vertex="1" parent="1">
          <mxGeometry x="-795" y="300" width="70" height="30" as="geometry" />
        </mxCell>
        <mxCell id="ovO3uFUhICe9sMaNS4VE-15" value="(query, keywords, filters: category, city, price)" style="text;html=1;whiteSpace=wrap;strokeColor=none;fillColor=none;align=center;verticalAlign=middle;rounded=0;" vertex="1" parent="1">
          <mxGeometry x="-815" y="440" width="110" height="30" as="geometry" />
        </mxCell>
        <mxCell id="ovO3uFUhICe9sMaNS4VE-35" style="edgeStyle=orthogonalEdgeStyle;rounded=0;orthogonalLoop=1;jettySize=auto;html=1;entryX=1;entryY=0.75;entryDx=0;entryDy=0;exitX=0;exitY=0.75;exitDx=0;exitDy=0;fillColor=#dae8fc;strokeColor=#6c8ebf;" edge="1" parent="1" source="ovO3uFUhICe9sMaNS4VE-18" target="ovO3uFUhICe9sMaNS4VE-13">
          <mxGeometry relative="1" as="geometry" />
        </mxCell>
        <mxCell id="ovO3uFUhICe9sMaNS4VE-18" value="" style="rounded=0;whiteSpace=wrap;html=1;fillColor=none;" vertex="1" parent="1">
          <mxGeometry x="-650" y="290" width="120" height="210" as="geometry" />
        </mxCell>
        <mxCell id="ovO3uFUhICe9sMaNS4VE-19" value="&lt;b&gt;&lt;font style=&quot;font-size: 14px;&quot;&gt;CBF Rec&lt;/font&gt;&lt;/b&gt;" style="text;html=1;whiteSpace=wrap;strokeColor=none;fillColor=none;align=center;verticalAlign=middle;rounded=0;" vertex="1" parent="1">
          <mxGeometry x="-625" y="300" width="70" height="30" as="geometry" />
        </mxCell>
        <mxCell id="ovO3uFUhICe9sMaNS4VE-20" value="" style="image;aspect=fixed;perimeter=ellipsePerimeter;html=1;align=center;shadow=0;dashed=0;spacingTop=3;image=img/lib/active_directory/database_cube.svg;" vertex="1" parent="1">
          <mxGeometry x="-619.25" y="347.5" width="58.5" height="65" as="geometry" />
        </mxCell>
        <mxCell id="ovO3uFUhICe9sMaNS4VE-21" value="(TFâ€‘IDF + Cosine + Diversify + Serendipity)" style="text;html=1;whiteSpace=wrap;strokeColor=none;fillColor=none;align=center;verticalAlign=middle;rounded=0;" vertex="1" parent="1">
          <mxGeometry x="-650" y="440" width="120" height="30" as="geometry" />
        </mxCell>
        <mxCell id="ovO3uFUhICe9sMaNS4VE-34" style="edgeStyle=orthogonalEdgeStyle;rounded=0;orthogonalLoop=1;jettySize=auto;html=1;entryX=1;entryY=0.75;entryDx=0;entryDy=0;exitX=-0.002;exitY=0.72;exitDx=0;exitDy=0;exitPerimeter=0;fillColor=#dae8fc;strokeColor=#6c8ebf;" edge="1" parent="1" source="ovO3uFUhICe9sMaNS4VE-22" target="ovO3uFUhICe9sMaNS4VE-18">
          <mxGeometry relative="1" as="geometry" />
        </mxCell>
        <mxCell id="ovO3uFUhICe9sMaNS4VE-22" value="" style="rounded=0;whiteSpace=wrap;html=1;fillColor=none;dashed=1;dashPattern=8 8;" vertex="1" parent="1">
          <mxGeometry x="-410" y="300" width="270" height="205" as="geometry" />
        </mxCell>
        <mxCell id="ovO3uFUhICe9sMaNS4VE-23" value="&lt;b&gt;&lt;font style=&quot;font-size: 14px;&quot;&gt;Streamlit App&lt;/font&gt;&lt;/b&gt;" style="text;html=1;whiteSpace=wrap;strokeColor=none;fillColor=none;align=center;verticalAlign=middle;rounded=0;" vertex="1" parent="1">
          <mxGeometry x="-720" y="254" width="95" height="30" as="geometry" />
        </mxCell>
        <mxCell id="ovO3uFUhICe9sMaNS4VE-24" value="&lt;b&gt;&lt;font style=&quot;font-size: 14px;&quot;&gt;CBF Model&lt;/font&gt;&lt;/b&gt;" style="text;html=1;whiteSpace=wrap;strokeColor=none;fillColor=none;align=center;verticalAlign=middle;rounded=0;" vertex="1" parent="1">
          <mxGeometry x="-322.5" y="310" width="95" height="30" as="geometry" />
        </mxCell>
        <mxCell id="ovO3uFUhICe9sMaNS4VE-25" value="vectorizer.joblib" style="rounded=1;whiteSpace=wrap;html=1;" vertex="1" parent="1">
          <mxGeometry x="-390" y="367.5" width="95" height="25" as="geometry" />
        </mxCell>
        <mxCell id="ovO3uFUhICe9sMaNS4VE-27" value="tfidf_matrix.npz" style="rounded=1;whiteSpace=wrap;html=1;" vertex="1" parent="1">
          <mxGeometry x="-260" y="367.5" width="95" height="25" as="geometry" />
        </mxCell>
        <mxCell id="ovO3uFUhICe9sMaNS4VE-28" value="items.csv" style="rounded=1;whiteSpace=wrap;html=1;" vertex="1" parent="1">
          <mxGeometry x="-390" y="442.5" width="95" height="25" as="geometry" />
        </mxCell>
        <mxCell id="ovO3uFUhICe9sMaNS4VE-29" value="nbrs_cosine.joblib" style="rounded=1;whiteSpace=wrap;html=1;" vertex="1" parent="1">
          <mxGeometry x="-260" y="440" width="110" height="25" as="geometry" />
        </mxCell>
        <mxCell id="ovO3uFUhICe9sMaNS4VE-30" style="edgeStyle=orthogonalEdgeStyle;rounded=0;orthogonalLoop=1;jettySize=auto;html=1;entryX=-0.02;entryY=0.222;entryDx=0;entryDy=0;entryPerimeter=0;fillColor=#f8cecc;strokeColor=#b85450;" edge="1" parent="1" source="ovO3uFUhICe9sMaNS4VE-2" target="ovO3uFUhICe9sMaNS4VE-13">
          <mxGeometry relative="1" as="geometry" />
        </mxCell>
        <mxCell id="ovO3uFUhICe9sMaNS4VE-33" style="edgeStyle=orthogonalEdgeStyle;rounded=0;orthogonalLoop=1;jettySize=auto;html=1;entryX=0;entryY=0.25;entryDx=0;entryDy=0;exitX=0.984;exitY=0.3;exitDx=0;exitDy=0;exitPerimeter=0;fillColor=#f8cecc;strokeColor=#b85450;" edge="1" parent="1" source="ovO3uFUhICe9sMaNS4VE-18" target="ovO3uFUhICe9sMaNS4VE-22">
          <mxGeometry relative="1" as="geometry" />
        </mxCell>
      </root>
    </mxGraphModel>
  </diagram>
</mxfile>
